<?xml version="1.0" standalone="no"?>
<!DOCTYPE svg PUBLIC "-//W3C//DTD SVG 20010904//EN"
 "http://www.w3.org/TR/2001/REC-SVG-20010904/DTD/svg10.dtd">
<svg version="1.0" xmlns="http://www.w3.org/2000/svg"
 width="512.000000pt" height="512.000000pt" viewBox="0 0 512.000000 512.000000"
 preserveAspectRatio="xMidYMid meet">
<metadata>
Created by potrace 1.11, written by Peter Selinger 2001-2013
</metadata>
<g transform="translate(0.000000,512.000000) scale(0.100000,-0.100000)"
fill="#000000" stroke="none">
<path d="M2347 4420 c-316 -69 -597 -287 -766 -595 -94 -171 -166 -411 -195
-652 -12 -99 -13 -361 -2 -431 3 -18 8 -52 11 -75 29 -215 111 -467 227 -698
67 -135 68 -137 53 -172 -29 -71 -21 -172 20 -243 96 -164 320 -195 454 -63
83 82 107 217 58 319 -32 67 -41 78 -96 118 -51 37 -108 55 -168 53 -48 -1
-52 4 -127 155 -89 179 -140 353 -175 594 -10 69 -7 444 4 495 3 17 13 64 21
105 63 311 249 611 451 728 140 81 317 132 460 132 292 0 537 -204 683 -571
42 -105 76 -226 85 -305 4 -27 9 -52 13 -55 4 -3 41 -16 82 -28 41 -13 94 -29
118 -37 23 -8 45 -14 48 -14 8 0 -4 117 -22 215 -95 515 -391 889 -801 1011
-120 36 -307 42 -436 14z"/>
<path d="M2214 3251 c-59 -19 -136 -88 -165 -149 -34 -69 -33 -179 1 -246 70
-137 223 -198 360 -143 64 26 101 56 140 112 l28 41 99 -2 c307 -4 566 -65
838 -198 388 -190 635 -437 771 -771 76 -185 89 -369 38 -522 -72 -218 -273
-416 -487 -480 -53 -16 -58 -17 -122 -27 -55 -9 -211 -10 -266 -1 -24 3 -57 9
-74 11 -74 12 -272 72 -281 85 -3 5 -31 -12 -62 -39 -31 -26 -85 -70 -120 -97
-34 -26 -61 -49 -60 -50 5 -4 189 -76 206 -81 9 -2 59 -15 110 -29 52 -14 115
-27 140 -31 26 -3 58 -7 72 -10 82 -15 308 1 439 30 173 39 383 153 513 279
182 176 260 365 260 632 1 149 -10 220 -54 359 -63 202 -170 373 -347 558
-175 183 -339 303 -566 413 -198 97 -428 168 -610 190 -22 3 -51 7 -64 10 -42
8 -191 18 -290 19 l-96 1 -26 35 c-37 51 -88 86 -151 105 -64 18 -108 17 -174
-4z"/>
<path d="M1063 2582 c-128 -110 -187 -173 -268 -287 -54 -75 -63 -90 -107
-179 -51 -103 -92 -232 -106 -336 -10 -65 -8 -286 2 -350 9 -65 49 -193 81
-267 114 -258 399 -453 740 -507 114 -18 327 -19 427 -1 244 43 475 118 656
212 354 185 621 448 826 815 42 74 54 88 80 94 87 19 183 107 207 191 41 145
-18 286 -147 349 -73 36 -176 38 -245 5 -59 -28 -112 -81 -141 -140 -41 -84
-30 -211 26 -289 l25 -36 -37 -69 c-90 -167 -275 -377 -447 -509 -144 -109
-366 -237 -516 -296 -66 -26 -210 -67 -272 -77 -126 -20 -314 -22 -410 -4 -34
6 -69 13 -77 14 -76 10 -218 75 -290 133 -107 85 -188 203 -236 344 -97 284
-17 574 236 857 30 34 80 82 111 107 l56 45 -22 72 c-12 40 -22 74 -22 77 0
18 -26 110 -32 110 -3 0 -47 -35 -98 -78z"/>
</g>
</svg>
